<?xml version="1.0" encoding="utf-8"?>
<!-- Generator: Adobe Illustrator 24.0.1, SVG Export Plug-In . SVG Version: 6.00 Build 0)  -->
<svg version="1.1" id="Layer_1" xmlns="http://www.w3.org/2000/svg" xmlns:xlink="http://www.w3.org/1999/xlink" x="0px" y="0px"
	 viewBox="0 0 141.73 141.73" style="enable-background:new 0 0 141.73 141.73;" xml:space="preserve">
<style type="text/css">
	.st0{display:none;}
	.st1{display:inline;}
	.st2{fill:none;stroke:#000000;stroke-miterlimit:10;}
	.st3{fill:#CC1F42;}
</style>
<g id="Layer_2_1_">
	<g class="st0">
		<g class="st1">
			<ellipse class="st2" cx="70.87" cy="70.87" rx="70.87" ry="70.86"/>
			<ellipse class="st2" cx="70.87" cy="70.87" rx="59.05" ry="59.05"/>
			<ellipse class="st2" cx="70.87" cy="70.87" rx="47.24" ry="47.24"/>
			<ellipse class="st2" cx="70.87" cy="70.87" rx="35.44" ry="35.44"/>
			<circle class="st2" cx="70.87" cy="70.87" r="23.62"/>
			<circle class="st2" cx="70.87" cy="70.87" r="11.81"/>
		</g>
		<g class="st1">
			<line class="st2" x1="70.87" y1="70.87" x2="70.87" y2="141.73"/>
			<line class="st2" x1="70.87" y1="70.87" x2="106.29" y2="132.23"/>
			<line class="st2" x1="70.87" y1="70.87" x2="132.24" y2="106.29"/>
			<line class="st2" x1="70.87" y1="70.87" x2="141.73" y2="70.87"/>
			<line class="st2" x1="70.87" y1="70.87" x2="132.24" y2="35.44"/>
			<line class="st2" x1="70.87" y1="70.87" x2="106.29" y2="9.5"/>
			<line class="st2" x1="70.87" y1="70.87" x2="70.87" y2="0"/>
			<line class="st2" x1="70.87" y1="70.87" x2="35.43" y2="9.5"/>
			<line class="st2" x1="70.87" y1="70.87" x2="9.5" y2="35.44"/>
			<line class="st2" x1="70.87" y1="70.87" x2="0" y2="70.87"/>
			<line class="st2" x1="70.87" y1="70.87" x2="9.5" y2="106.29"/>
			<line class="st2" x1="70.87" y1="70.87" x2="35.43" y2="132.23"/>
		</g>
	</g>
	<g>
		<ellipse class="st3" cx="70.91" cy="137.91" rx="1.96" ry="2.31"/>
		<path class="st3" d="M70.83,1.52c-24.8,0-46.52,13.05-58.77,32.62l0.03,0.01c-0.03-0.01-0.1,0.1-0.1,0.18
			c0.04,0.5,0.63,1.43,1.86,1.85s2.27,0.04,2.6-0.33c0.01-0.01,0-0.03,0.01-0.04C27.97,17.98,48.01,6.15,70.83,6.15
			c35.74,0,64.71,28.97,64.71,64.71s-28.97,64.71-64.71,64.71v4.63c38.3,0,69.35-31.05,69.35-69.35S109.13,1.52,70.83,1.52z"/>
		<g>
			<path class="st3" d="M57.34,111.03c-1.17,0-2.35-0.31-3.41-0.99c-1.49-0.94-4.65-2.66-5.01-5.52c-0.36-2.87,2.08-6.88,3.02-8.37
				l48.64-65.39c2.58-2.98,4-5.32,5.74-3.65c1.39,1.33-0.75,3.23-2.21,6.44l-41.37,74.5C61.53,109.98,59.46,111.03,57.34,111.03z"/>
		</g>
		<path class="st3" d="M51.36,95.22l3.76-4.99L43.53,67.21c-1.4-2.63-1.76-3.44-2.51-3.51c-0.69-0.06-0.78,1.06-0.35,4.57l6.9,35.76
			C47.81,99.97,51.36,95.22,51.36,95.22z"/>
		<g>
			<g>
				<path class="st3" d="M62.38,135.17c-1.4,0-2.52,1.13-2.52,2.52c0,1.4,1.13,2.52,2.52,2.52c1.4,0,2.52-1.13,2.52-2.52
					C64.9,136.29,63.77,135.17,62.38,135.17z"/>
				<path class="st3" d="M52.33,133.49c-1.21,0-2.19,0.99-2.19,2.19c0,1.21,0.99,2.19,2.19,2.19s2.19-0.99,2.19-2.19
					C54.53,134.47,53.54,133.49,52.33,133.49z"/>
				<circle class="st3" cx="42.68" cy="132.28" r="1.91"/>
			</g>
			<g>
				<circle class="st3" cx="33.69" cy="127.34" r="1.91"/>
				<circle class="st3" cx="25.54" cy="121.1" r="1.91"/>
				<circle class="st3" cx="18.45" cy="113.71" r="1.91"/>
			</g>
			<g>
				<circle class="st3" cx="12.55" cy="105.3" r="1.91"/>
				<circle class="st3" cx="8.04" cy="96.16" r="1.91"/>
				<circle class="st3" cx="4.97" cy="86.34" r="1.91"/>
				<circle class="st3" cx="3.46" cy="76.24" r="1.91"/>
				<circle class="st3" cx="3.46" cy="66" r="1.28"/>
				<path class="st3" d="M4.99,56.76c0.46,0,0.84-0.38,0.84-0.84s-0.38-0.84-0.84-0.84c-0.46,0-0.84,0.38-0.84,0.84
					S4.52,56.76,4.99,56.76z"/>
			</g>
		</g>
	</g>
</g>
</svg>
